<svg width="30" height="31" viewBox="0 0 30 31" fill="none" xmlns="http://www.w3.org/2000/svg">
<rect y="0.5" width="30" height="30" rx="11.6667" fill="#D9912B"/>
<path d="M8.31667 19.5V11.1H11.6475C12.2153 11.1 12.68 11.2147 13.0417 11.4442C13.4072 11.6697 13.6775 11.9594 13.8525 12.3133C14.0314 12.6672 14.1208 13.0328 14.1208 13.41C14.1208 13.8728 14.01 14.2656 13.7883 14.5883C13.5706 14.9111 13.2731 15.1289 12.8958 15.2417V14.95C13.4247 15.0706 13.8253 15.3214 14.0975 15.7025C14.3736 16.0836 14.5117 16.5172 14.5117 17.0033C14.5117 17.5011 14.4164 17.9367 14.2258 18.31C14.0353 18.6833 13.7514 18.975 13.3742 19.185C13.0008 19.395 12.5381 19.5 11.9858 19.5H8.31667ZM9.74 18.1758H11.8108C12.0558 18.1758 12.2756 18.1272 12.47 18.03C12.6644 17.9289 12.8161 17.7889 12.925 17.61C13.0378 17.4272 13.0942 17.2114 13.0942 16.9625C13.0942 16.7369 13.0456 16.5347 12.9483 16.3558C12.8511 16.1769 12.7092 16.035 12.5225 15.93C12.3358 15.8211 12.1122 15.7667 11.8517 15.7667H9.74V18.1758ZM9.74 14.4542H11.63C11.8322 14.4542 12.0131 14.4153 12.1725 14.3375C12.3319 14.2597 12.4583 14.145 12.5517 13.9933C12.645 13.8417 12.6917 13.655 12.6917 13.4333C12.6917 13.1417 12.5983 12.8986 12.4117 12.7042C12.225 12.5097 11.9644 12.4125 11.63 12.4125H9.74V14.4542ZM15.6767 19.5V11.1H21.1017V12.4183H17.0825V14.4892H20.4017V15.8075H17.0825V18.1817H21.1017V19.5H15.6767Z" fill="#150D09"/>
</svg>
