<svg width="19" height="22" viewBox="0 0 19 22" fill="none" xmlns="http://www.w3.org/2000/svg">
<path opacity="0.5" d="M15.7491 9.00016V9.70426C15.7491 10.5493 15.9903 11.3753 16.4422 12.0784L17.5496 13.8013C18.5612 15.375 17.789 17.5141 16.0296 18.0117C11.4273 19.3136 6.57274 19.3136 1.97036 18.0117C0.211046 17.5141 -0.561177 15.375 0.450359 13.8013L1.5578 12.0784C2.00972 11.3753 2.25087 10.5493 2.25087 9.70426V9.00016C2.25087 5.13417 5.27256 2.00016 9 2.00016C12.7274 2.00016 15.7491 5.13417 15.7491 9.00016Z" fill="#1C274C"/>
<path d="M9.75 6.00016C9.75 5.58595 9.41421 5.25016 9 5.25016C8.58579 5.25016 8.25 5.58595 8.25 6.00016V10.0002C8.25 10.4144 8.58579 10.7502 9 10.7502C9.41421 10.7502 9.75 10.4144 9.75 10.0002V6.00016Z" fill="#1C274C"/>
<path d="M4.24316 18.5451C4.8941 20.5502 6.77767 21.9998 8.99981 21.9998C11.222 21.9998 13.1055 20.5502 13.7565 18.5451C10.611 19.1354 7.3886 19.1354 4.24316 18.5451Z" fill="#1C274C"/>
<path d="M18 4.50016C18 6.43316 16.433 8.00016 14.5 8.00016C12.567 8.00016 11 6.43316 11 4.50016C11 2.56716 12.567 1.00016 14.5 1.00016C16.433 1.00016 18 2.56716 18 4.50016Z" fill="#D9912B" stroke="#F2F3F7" stroke-width="1.4" stroke-linecap="round"/>
</svg>
