<svg width="15" height="14" viewBox="0 0 15 14" fill="none" xmlns="http://www.w3.org/2000/svg">
<path d="M1.04024 1.67711C0.968635 1.59538 0.921429 1.49388 0.904346 1.38489C0.887263 1.2759 0.901036 1.16411 0.943996 1.06308C0.986956 0.962043 1.05726 0.876105 1.14638 0.815681C1.2355 0.755257 1.33961 0.722943 1.44608 0.722656H13.5525C13.6591 0.722667 13.7634 0.754782 13.8527 0.815098C13.942 0.875415 14.0125 0.961338 14.0557 1.06243C14.0988 1.16351 14.1127 1.27542 14.0956 1.38453C14.0786 1.49365 14.0314 1.59529 13.9597 1.67711L9.30011 6.83527C9.20461 6.94105 9.15149 7.08055 9.15153 7.22547V11.1838C9.15159 11.2778 9.12927 11.3703 9.08655 11.4532C9.04383 11.5361 8.98203 11.6067 8.90665 11.6589L6.70549 13.1804C6.62268 13.2381 6.52631 13.2713 6.42668 13.2766C6.32706 13.2819 6.22793 13.2589 6.1399 13.2103C6.05187 13.1616 5.97825 13.0891 5.9269 13.0004C5.87556 12.9117 5.84843 12.8102 5.84841 12.7068V7.22547C5.84845 7.08055 5.79533 6.94105 5.69983 6.83527L1.04024 1.67711Z" stroke="#9C9090" stroke-width="1.30439" stroke-linecap="round" stroke-linejoin="round"/>
</svg>
