<svg width="20" height="21" viewBox="0 0 20 21" fill="none" xmlns="http://www.w3.org/2000/svg">
<path opacity="0.5" d="M1.66675 10.5C1.66675 6.57163 1.66675 4.60744 2.88714 3.38705C4.10752 2.16666 6.07171 2.16666 10.0001 2.16666C13.9285 2.16666 15.8926 2.16666 17.113 3.38705C18.3334 4.60744 18.3334 6.57163 18.3334 10.5C18.3334 14.4284 18.3334 16.3926 17.113 17.6129C15.8926 18.8333 13.9285 18.8333 10.0001 18.8333C6.07171 18.8333 4.10752 18.8333 2.88714 17.6129C1.66675 16.3926 1.66675 14.4284 1.66675 10.5Z" fill="#9B9D99"/>
<path fill-rule="evenodd" clip-rule="evenodd" d="M13.7501 10.5C13.7501 10.8452 13.4703 11.125 13.1251 11.125H10.0001C9.6549 11.125 9.37508 10.8452 9.37508 10.5V7.375C9.37508 7.02982 9.6549 6.75 10.0001 6.75C10.3453 6.75 10.6251 7.02982 10.6251 7.375V8.99112L13.7248 5.89139C13.9689 5.64731 14.3646 5.64731 14.6087 5.89139C14.8528 6.13547 14.8528 6.5312 14.6087 6.77528L11.509 9.875H13.1251C13.4703 9.875 13.7501 10.1548 13.7501 10.5Z" fill="#9B9D99"/>
<path d="M1.66675 15.0833C1.66675 13.3156 1.66675 12.4317 2.21592 11.8825C2.7651 11.3333 3.64898 11.3333 5.41675 11.3333C7.18451 11.3333 8.0684 11.3333 8.61757 11.8825C9.16675 12.4317 9.16675 13.3156 9.16675 15.0833C9.16675 16.8511 9.16675 17.735 8.61757 18.2842C8.0684 18.8333 7.18451 18.8333 5.41675 18.8333C3.64898 18.8333 2.7651 18.8333 2.21592 18.2842C1.66675 17.735 1.66675 16.8511 1.66675 15.0833Z" fill="#9B9D99"/>
</svg>
